<svg width="390" height="170" viewBox="0 0 390 170" fill="none" xmlns="http://www.w3.org/2000/svg" role="img" aria-labelledby="title desc">
  <title id="title">Commit Types</title>
  <desc id="desc">Commit message type distribution.</desc>
  <rect x="0.5" y="0.5" width="389" height="169" rx="10" fill="#ffffff" stroke="#d0d7de"/>
  <text x="24" y="34" fill="#0969da" font-family="Segoe UI, Arial, sans-serif" font-size="18" font-weight="700">Commit Types</text>
  <g transform="translate(24 55)">
    <rect x="0" y="0" width="342" height="11" rx="5.5" fill="#eaeef2"/>
    <rect x="0.0" y="0" width="114.0" height="11" rx="5.5" fill="#cf222e"/>
    <rect x="114.0" y="0" width="72.0" height="11" fill="#0969da"/>
    <rect x="186.0" y="0" width="72.0" height="11" fill="#6e7781"/>
    <rect x="258.0" y="0" width="48.0" height="11" fill="#2da44e"/>
    <rect x="306.0" y="0" width="18.0" height="11" fill="#bf8700"/>
    <rect x="324.0" y="0" width="12.0" height="11" fill="#8250df"/>
    <rect x="336.0" y="0" width="6.0" height="11" fill="#1f883d"/>
  </g>
  <g font-family="Segoe UI, Arial, sans-serif" font-size="13">
    <circle cx="29" cy="89" r="5" fill="#cf222e"/><text x="43" y="94" fill="#24292f">fix</text><text x="111" y="94" fill="#57606a">19</text> <circle cx="149" cy="89" r="5" fill="#0969da"/><text x="163" y="94" fill="#24292f">docs</text><text x="231" y="94" fill="#57606a">12</text> <circle cx="279" cy="89" r="5" fill="#6e7781"/><text x="293" y="94" fill="#24292f">other</text><text x="361" y="94" fill="#57606a">12</text> <circle cx="29" cy="119" r="5" fill="#2da44e"/><text x="43" y="124" fill="#24292f">feat</text><text x="111" y="124" fill="#57606a">8</text> <circle cx="149" cy="119" r="5" fill="#bf8700"/><text x="163" y="124" fill="#24292f">chore</text><text x="231" y="124" fill="#57606a">3</text> <circle cx="279" cy="119" r="5" fill="#8250df"/><text x="293" y="124" fill="#24292f">style</text><text x="361" y="124" fill="#57606a">2</text> <circle cx="29" cy="149" r="5" fill="#1f883d"/><text x="43" y="154" fill="#24292f">ci</text><text x="111" y="154" fill="#57606a">1</text>
  </g>
</svg>
