<svg width="390" height="170" viewBox="0 0 390 170" fill="none" xmlns="http://www.w3.org/2000/svg" role="img" aria-labelledby="title desc">
  <title id="title">Language Distribution</title>
  <desc id="desc">Repository language distribution.</desc>
  <rect x="0.5" y="0.5" width="389" height="169" rx="10" fill="#ffffff" stroke="#d0d7de"/>
  <text x="24" y="34" fill="#0969da" font-family="Segoe UI, Arial, sans-serif" font-size="18" font-weight="700">Language Distribution</text>
  <g transform="translate(24 55)">
    <rect x="0" y="0" width="342" height="11" rx="5.5" fill="#eaeef2"/>
    <rect x="0.0" y="0" width="145.1" height="11" rx="5.5" fill="#b07219"/>
    <rect x="145.1" y="0" width="60.9" height="11" fill="#f34b7d"/>
    <rect x="206.0" y="0" width="45.6" height="11" fill="#41b883"/>
    <rect x="251.6" y="0" width="22.4" height="11" fill="#e34c26"/>
    <rect x="274.0" y="0" width="19.4" height="11" fill="#3572A5"/>
    <rect x="293.4" y="0" width="10.9" height="11" fill="#f1e05a"/>
  </g>
  <g font-family="Segoe UI, Arial, sans-serif" font-size="13">
    <circle cx="28" cy="88" r="5" fill="#b07219"/><text x="42" y="93" fill="#24292f">Java</text><text x="132" y="93" fill="#57606a">42.4%</text> <circle cx="212" cy="88" r="5" fill="#f34b7d"/><text x="226" y="93" fill="#24292f">C++</text><text x="316" y="93" fill="#57606a">17.8%</text> <circle cx="28" cy="114" r="5" fill="#41b883"/><text x="42" y="119" fill="#24292f">Vue</text><text x="132" y="119" fill="#57606a">13.3%</text> <circle cx="212" cy="114" r="5" fill="#e34c26"/><text x="226" y="119" fill="#24292f">HTML</text><text x="316" y="119" fill="#57606a">6.6%</text> <circle cx="28" cy="140" r="5" fill="#3572A5"/><text x="42" y="145" fill="#24292f">Python</text><text x="132" y="145" fill="#57606a">5.7%</text> <circle cx="212" cy="140" r="5" fill="#f1e05a"/><text x="226" y="145" fill="#24292f">JavaScript</text><text x="316" y="145" fill="#57606a">3.2%</text>
  </g>
</svg>
