<svg width="390" height="170" viewBox="0 0 390 170" fill="none" xmlns="http://www.w3.org/2000/svg" role="img" aria-labelledby="title desc">
  <title id="title">Top Languages</title>
  <desc id="desc">Java 42.8 percent, C++ 18 percent, Vue 13.5 percent, HTML 6.6 percent, Python 4.7 percent, JavaScript 3.2 percent.</desc>
  <rect x="0.5" y="0.5" width="389" height="169" rx="8" fill="#ffffff" stroke="#d0d7de"/>
  <text x="24" y="35" fill="#0969da" font-family="Segoe UI, Arial, sans-serif" font-size="18" font-weight="700">Top Languages</text>
  <g transform="translate(24 55)">
    <rect x="0" y="0" width="342" height="10" rx="5" fill="#d8dee4"/>
    <rect x="0" y="0" width="146.4" height="10" rx="5" fill="#b07219"/>
    <rect x="146.4" y="0" width="61.6" height="10" fill="#f34b7d"/>
    <rect x="208" y="0" width="46.2" height="10" fill="#41b883"/>
    <rect x="254.2" y="0" width="22.6" height="10" fill="#e34c26"/>
    <rect x="276.8" y="0" width="16.1" height="10" fill="#3572A5"/>
    <rect x="292.9" y="0" width="10.9" height="10" fill="#f1e05a"/>
  </g>
  <g font-family="Segoe UI, Arial, sans-serif" font-size="13">
    <circle cx="28" cy="88" r="5" fill="#b07219"/>
    <text x="42" y="93" fill="#24292f">Java</text>
    <text x="132" y="93" fill="#57606a">42.8%</text>
    <circle cx="212" cy="88" r="5" fill="#f34b7d"/>
    <text x="226" y="93" fill="#24292f">C++</text>
    <text x="316" y="93" fill="#57606a">18.0%</text>
    <circle cx="28" cy="114" r="5" fill="#41b883"/>
    <text x="42" y="119" fill="#24292f">Vue</text>
    <text x="132" y="119" fill="#57606a">13.5%</text>
    <circle cx="212" cy="114" r="5" fill="#e34c26"/>
    <text x="226" y="119" fill="#24292f">HTML</text>
    <text x="316" y="119" fill="#57606a">6.6%</text>
    <circle cx="28" cy="140" r="5" fill="#3572A5"/>
    <text x="42" y="145" fill="#24292f">Python</text>
    <text x="132" y="145" fill="#57606a">4.7%</text>
    <circle cx="212" cy="140" r="5" fill="#f1e05a"/>
    <text x="226" y="145" fill="#24292f">JavaScript</text>
    <text x="316" y="145" fill="#57606a">3.2%</text>
  </g>
</svg>
