<svg width="390" height="170" viewBox="0 0 390 170" fill="none" xmlns="http://www.w3.org/2000/svg" role="img" aria-labelledby="title desc">
  <title id="title">Project Contributions</title>
  <desc id="desc">datasync 37, resources-for-cs-student 5, Alexander-Bruce 3, Connect_six 2, other projects 6.</desc>
  <rect x="0.5" y="0.5" width="389" height="169" rx="10" fill="#ffffff" stroke="#d0d7de"/>
  <text x="24" y="34" fill="#0969da" font-family="Segoe UI, Arial, sans-serif" font-size="18" font-weight="700">Project Contributions</text>
  <g font-family="Segoe UI, Arial, sans-serif" font-size="12">
    <text x="24" y="67" fill="#24292f">datasync</text>
    <rect x="150" y="57" width="190" height="10" rx="5" fill="#eaeef2"/>
    <rect x="150" y="57" width="190" height="10" rx="5" fill="#0969da"/>
    <text x="356" y="67" text-anchor="end" fill="#57606a">37</text>
    <text x="24" y="91" fill="#24292f">resources</text>
    <rect x="150" y="81" width="190" height="10" rx="5" fill="#eaeef2"/>
    <rect x="150" y="81" width="26" height="10" rx="5" fill="#2da44e"/>
    <text x="356" y="91" text-anchor="end" fill="#57606a">5</text>
    <text x="24" y="115" fill="#24292f">profile</text>
    <rect x="150" y="105" width="190" height="10" rx="5" fill="#eaeef2"/>
    <rect x="150" y="105" width="15" height="10" rx="5" fill="#8250df"/>
    <text x="356" y="115" text-anchor="end" fill="#57606a">3</text>
    <text x="24" y="139" fill="#24292f">Connect_six</text>
    <rect x="150" y="129" width="190" height="10" rx="5" fill="#eaeef2"/>
    <rect x="150" y="129" width="10" height="10" rx="5" fill="#bf8700"/>
    <text x="356" y="139" text-anchor="end" fill="#57606a">2</text>
    <text x="24" y="161" fill="#24292f">other projects</text>
    <text x="356" y="161" text-anchor="end" fill="#57606a">6</text>
  </g>
</svg>
